Coordinates
version=1
nRows=11
nColumns=40
inDegrees=yes

Units are S.I. units (second, meters, Newtons, ...)
Angles are in degrees.

endheader
time	pelvis_tilt	pelvis_list	pelvis_rotation	pelvis_tx	pelvis_ty	pelvis_tz	hip_flexion_r	hip_adduction_r	hip_rotation_r	knee_angle_r	knee_angle_r_beta	ankle_angle_r	subtalar_angle_r	mtp_angle_r	hip_flexion_l	hip_adduction_l	hip_rotation_l	knee_angle_l	knee_angle_l_beta	ankle_angle_l	subtalar_angle_l	mtp_angle_l	lumbar_extension	lumbar_bending	lumbar_rotation	arm_flex_r	arm_add_r	arm_rot_r	elbow_flex_r	pro_sup_r	wrist_flex_r	wrist_dev_r	arm_flex_l	arm_add_l	arm_rot_l	elbow_flex_l	pro_sup_l	wrist_flex_l	wrist_dev_l
     45.49250000	     -5.61408539	     -4.26540601	      2.82317477	      0.94961211	      0.92462115	      0.42865238	      1.49773390	     -1.73988838	    -17.41467889	     26.74957492	     26.74957492	     15.03614937	      3.46167095	     -9.62617702	     26.48276925	     -3.49789508	     -3.21171241	     24.09726950	     24.09726950	      6.57400228	    -15.33790199	      7.83576081	     -6.34240906	      5.90764233	      5.41290773	     29.24622203	    -16.16820964	     -9.21710900	     76.90169737	     45.38620278	      0.00000000	      0.00000000	     -6.67810739	     -6.69219795	      3.80257504	     27.16638189	     44.42731207	      0.00000000	      0.00000000
     45.50485714	     -5.57247738	     -4.28134503	      2.71262976	      0.95001847	      0.92566629	      0.42593274	      2.70643932	     -2.32674314	    -16.36811722	     29.68549804	     29.68549804	     12.58471273	      0.99487387	    -13.95701500	     25.77405339	     -3.46199393	     -3.58309830	     23.97806564	     23.97806564	      7.05688043	    -14.97382514	      7.37506301	     -6.34288216	      6.04546152	      5.14591387	     28.40970278	    -15.50913515	    -10.01239815	     72.37966950	     45.55420985	      0.00000000	      0.00000000	     -5.94155781	     -6.88038845	      3.58858517	     28.27891176	     44.52260576	      0.00000000	      0.00000000
     45.51721429	     -5.44928011	     -4.08015188	      2.62171571	      0.95038949	      0.92658965	      0.42306611	      4.15029259	     -3.37593204	    -15.71215794	     33.38709024	     33.38709024	     11.11115094	     -0.18561993	    -15.12116777	     24.86488089	     -3.16761528	     -3.98202311	     23.69394113	     23.69394113	      7.61350451	    -14.57100797	      7.04296028	     -6.57049535	      5.99977093	      4.97489299	     26.68859940	    -15.30586285	     -9.90009546	     70.79586648	     45.59362298	      0.00000000	      0.00000000	     -4.89238619	     -7.08325668	      3.46992486	     28.96804034	     44.56715337	      0.00000000	      0.00000000
     45.52957143	     -5.41987616	     -3.98724756	      2.52651260	      0.95054645	      0.92714078	      0.42046889	      5.87976876	     -4.17061341	    -14.70878039	     37.20132569	     37.20132569	      9.12576314	     -2.08443668	    -16.39737414	     24.16479794	     -3.00467547	     -4.33410470	     23.54745513	     23.54745513	      8.09729755	    -14.16699873	      6.61735397	     -6.62582162	      6.01489997	      5.05246670	     24.96346804	    -15.27108082	    -10.00569489	     68.38558366	     45.66801111	      0.00000000	      0.00000000	     -3.75654481	     -7.31553669	      3.31665325	     29.90718933	     44.61839935	      0.00000000	      0.00000000
     45.54192857	     -5.30817280	     -3.85846632	      2.45840287	      0.95059863	      0.92755932	      0.41791085	      7.63995277	     -4.93869238	    -13.66551820	     41.07290159	     41.07290159	      6.86345091	     -4.17138269	    -17.33617585	     23.43766900	     -2.79480091	     -4.65403096	     23.50859276	     23.50859276	      8.62712724	    -13.85463474	      6.15935026	     -6.77488020	      6.04557633	      5.01479218	     23.31250305	    -15.10713369	    -10.12816094	     65.95288485	     45.74431295	      0.00000000	      0.00000000	     -2.53078087	     -7.61815953	      3.17117113	     30.88173179	     44.66695971	      0.00000000	      0.00000000
     45.55428571	     -5.18699510	     -4.00323895	      2.45783060	      0.95054566	      0.92791879	      0.41573661	      9.31779149	     -5.10730615	    -12.39042719	     44.41402072	     44.41402072	      3.03439942	     -7.87294349	    -21.07610766	     22.77252721	     -2.91114464	     -4.90001369	     23.51342995	     23.51342995	      8.97352292	    -13.36008962	      5.05081416	     -6.80559112	      6.25830969	      4.07062374	     23.50462992	    -13.78961936	    -11.04385319	     59.31271647	     45.97788324	      0.00000000	      0.00000000	     -2.22810238	     -8.14525504	      2.93134928	     33.17529554	     44.76720876	      0.00000000	      0.00000000
     45.56664286	     -5.10850932	     -3.85108950	      2.43418973	      0.95025548	      0.92798199	      0.41334324	     11.33374610	     -5.79990659	    -11.41426476	     48.34966601	     48.34966601	      0.64339611	     -9.58619437	    -20.60272444	     22.15286373	     -2.63255499	     -5.00763009	     23.53210901	     23.53210901	      9.48032100	    -13.28355600	      4.76082559	     -6.96912633	      6.22069125	      4.11017638	     21.54535856	    -13.83182546	    -10.90831470	     57.58246143	     46.01788651	      0.00000000	      0.00000000	     -0.80491758	     -8.46214336	      2.73365762	     34.11702978	     44.82518670	      0.00000000	      0.00000000
     45.57900000	     -4.99019627	     -3.88579965	      2.45163795	      0.94986233	      0.92805715	      0.41122299	     13.35318857	     -6.06140384	    -10.33372229	     52.11241351	     52.11241351	     -1.48603647	    -11.42322684	    -18.48993676	     21.58606455	     -2.58421007	     -5.07813423	     23.67411102	     23.67411102	      9.96739419	    -13.10950875	      4.28273111	     -7.06364165	      6.35585485	      3.77026184	     20.78567032	    -13.36981150	    -11.17519484	     52.80471182	     46.15467898	      0.00000000	      0.00000000	      0.21358815	     -8.92276970	      2.55371632	     35.86264022	     44.93162718	      0.00000000	      0.00000000
     45.59135714	     -4.82271216	     -3.72619013	      2.52634847	      0.94941561	      0.92812150	      0.40895771	     15.25287821	     -6.61753616	     -9.54372825	     55.57835588	     55.57835588	     -3.80149839	    -12.76662148	    -17.56780911	     20.92512645	     -2.27837338	     -5.06907215	     23.74865040	     23.74865040	     10.47291052	    -13.07227907	      4.05022148	     -7.31002203	      6.30242337	      3.57619642	     18.79725886	    -13.19416192	    -11.04785165	     51.34560238	     46.18642408	      0.00000000	      0.00000000	      1.78389962	     -9.33219418	      2.37157635	     36.68900443	     44.98355497	      0.00000000	      0.00000000
     45.60371429	     -4.77594480	     -3.81285877	      2.48880012	      0.94879134	      0.92812001	      0.40718817	     17.46991306	     -6.62471305	     -8.51852322	     59.08892056	     59.08892056	     -4.45055155	    -13.34601906	    -11.83859023	     20.45762057	     -2.30328564	     -5.10238158	     23.89621319	     23.89621319	     11.01575609	    -12.97239277	      3.87657190	     -7.30250322	      6.47418127	      3.57474721	     17.99786636	    -13.03233839	    -11.35601457	     45.97174276	     46.34762608	      0.00000000	      0.00000000	      3.09561282	     -9.71102373	      2.40818522	     38.19029252	     45.06495514	      0.00000000	      0.00000000
     45.61607143	     -4.76216601	     -3.77732197	      2.48329743	      0.94803125	      0.92816509	      0.40534935	     19.50815031	     -6.76229432	     -7.70953472	     61.89075792	     61.89075792	     -6.12911580	    -14.52519541	    -10.35646181	     19.95080121	     -2.14865733	     -5.05379369	     23.88606001	     23.88606001	     11.39490796	    -12.99467188	      3.77089299	     -7.41571602	      6.56125614	      3.81956240	     15.90412091	    -13.11392567	    -11.25176733	     44.02771016	     46.39258499	      0.00000000	      0.00000000	      4.76694747	     -9.92837340	      2.19712691	     39.28327128	     45.12876445	      0.00000000	      0.00000000
